<svg width="79" height="50" viewBox="0 0 79 50" fill="none" xmlns="http://www.w3.org/2000/svg">
<path d="M32.3763 10.4717C32.5023 9.72934 32.5738 8.9972 32.7713 8.2855C33.8134 4.56353 36.1255 2.00617 39.7624 0.681513C42.0133 -0.13916 44.3152 -0.224291 46.6104 0.456764C49.59 1.34214 51.8 3.20482 53.2881 5.92564C54.2859 7.75087 54.6979 9.72593 54.514 11.7861C54.2178 15.1471 52.825 17.9701 50.1008 20.0439C48.9226 20.9395 47.5673 21.4775 46.1166 21.7772C44.7273 22.0667 43.3277 22.1109 41.9179 22.0156C41.7613 22.0054 41.6012 22.0156 41.4446 22.0156C41.4139 22.0156 41.3833 22.0462 41.3322 22.0735C41.2505 22.271 41.3288 22.4753 41.3799 22.6728C42.0201 25.1484 42.2142 27.6717 42.0541 30.2121C41.8839 32.9091 41.2301 35.4971 39.9973 37.908C37.5149 42.7639 33.735 46.2067 28.6475 48.1885C26.5192 49.016 24.316 49.486 22.0209 49.5949C18.384 49.7686 14.9515 49.0262 11.7063 47.4224C7.64379 45.4132 4.49732 42.4268 2.36561 38.412C1.11588 36.0555 0.342878 33.5459 0.0261873 30.8965C-0.362014 27.6479 -0.0351077 24.4708 1.05799 21.3856C1.91271 18.9713 3.20672 16.8021 4.84125 14.8373C7.66423 11.4388 11.2602 9.22876 15.4759 8.02329C18.5237 7.15495 21.6157 7.09025 24.7315 7.67595C27.265 8.15269 29.6317 9.06531 31.8758 10.3219C32.012 10.3968 32.1448 10.4955 32.3797 10.4717H32.3763ZM42.5683 19.8294C42.8986 19.9384 43.2187 19.8771 43.532 19.8873C43.8317 19.8975 43.9883 19.7715 44.0019 19.4582C44.019 19.053 44.0905 18.6546 44.0871 18.2493C44.0803 17.2652 44.0871 16.2777 44.0871 15.2936C44.0871 14.8645 44.2233 14.5001 44.5502 14.2175C44.809 13.9927 44.9895 13.7169 45.1189 13.4036C45.1768 13.2606 45.2449 13.1006 45.3572 12.9984C46.0621 12.348 46.3073 11.5001 46.4435 10.5977C46.6444 9.27644 46.8658 7.95859 47.128 6.64756C47.2574 6.00737 47.3119 5.35696 47.1791 4.70655C47.036 4.00847 46.6683 3.49087 46.0281 3.15715C45.1768 2.71787 44.271 2.6736 43.3515 2.79619C42.9497 2.85067 42.5819 3.02094 42.2482 3.27293C41.7715 3.63389 41.574 4.10382 41.6148 4.70315C41.9894 4.95854 42.4185 4.95854 42.8305 5.00281C43.372 5.0573 43.9202 5.06411 44.4617 5.11859C44.7 5.14243 44.9929 5.12881 45.095 5.47614C44.6251 5.59192 44.1892 5.53403 43.7568 5.46252C43.2187 5.37399 42.6807 5.26161 42.1325 5.30247C41.9486 5.3161 41.7374 5.26842 41.591 5.49317C41.9145 5.71451 42.2857 5.72473 42.6398 5.73495C43.1506 5.74857 43.658 5.80646 44.162 5.86775C44.4446 5.9018 44.7307 5.95288 45.0099 6.1538C44.574 6.40238 44.1926 6.27298 43.8181 6.2185C43.2085 6.12655 42.6228 5.91202 41.9996 5.92905C41.7715 5.93586 41.4718 5.84732 41.3799 6.17423C41.322 6.37514 41.5331 6.4773 41.9928 6.48751C42.7318 6.50794 43.4639 6.60329 44.2063 6.60329C44.4719 6.60329 44.7749 6.6101 44.8941 6.95744C44.6455 7.23327 44.3561 7.09025 44.0939 7.06641C43.3583 6.99149 42.6432 6.78718 41.9009 6.77015C41.7272 6.76675 41.5195 6.70886 41.3697 6.93701C41.7749 7.15835 42.1903 7.21624 42.6092 7.22305C43.12 7.23327 43.6274 7.27413 44.1348 7.33543C44.3493 7.36267 44.574 7.39332 44.6966 7.65552C44.305 7.79514 43.9577 7.74065 43.6103 7.69639C42.9838 7.61466 42.3572 7.51931 41.7306 7.4444C41.1858 7.3797 41.087 7.45121 40.9304 7.962C40.6477 8.89504 40.5422 9.85533 40.5149 10.8258C40.5047 11.214 40.5762 11.5954 40.7159 11.9632C40.8555 12.3276 41.0972 12.5864 41.4957 12.7226C41.7374 12.583 41.9281 12.382 42.1052 12.1607C42.3742 11.827 42.7011 11.5614 43.12 11.432C43.3073 11.3741 43.5048 11.3196 43.6853 11.4933C43.5252 11.6363 43.3481 11.5818 43.2017 11.6329C42.6773 11.827 42.3742 12.2492 42.112 12.6374C41.9043 12.9439 42.0882 13.3423 42.221 13.6692C42.4287 14.1868 42.4968 14.7181 42.4934 15.2697C42.4832 16.5195 42.4764 17.7692 42.4764 19.0189C42.4764 19.2777 42.4151 19.5468 42.5717 19.8294H42.5683ZM16.0889 33.4335C19.2762 33.4233 21.5952 31.1894 21.5952 28.1383C21.5952 24.9611 19.3171 22.4719 16.3851 22.5264C13.0888 22.5843 10.7494 24.7602 10.7835 27.9135C10.8141 30.8148 12.939 33.5186 16.0923 33.4369L16.0889 33.4335ZM30.1629 22.7988C30.0607 23.044 30.0437 23.2858 30.0573 23.5343C30.0778 23.9021 30.1016 24.2733 30.1016 24.6411C30.1016 27.2291 30.1016 29.8171 30.1016 32.4051C30.1016 32.5651 30.105 32.7218 30.1118 32.8818C30.1152 33.0623 30.1901 33.1917 30.3774 33.2155C30.5715 33.2394 30.7214 33.1679 30.8099 32.9908C30.8848 32.841 30.8644 32.6809 30.8542 32.5243C30.7758 31.4346 30.7793 30.3449 30.7997 29.2518C30.8031 29.0236 30.8099 28.7989 30.9768 28.5741C32.3014 28.5912 33.6295 28.5469 34.9609 28.6116C34.9746 28.7785 34.9882 28.884 34.9882 28.9896C34.9984 30.1167 35.0052 31.2439 35.0154 32.371C35.0154 32.5651 35.0393 32.7558 35.0597 32.9499C35.0801 33.1202 35.155 33.2564 35.3457 33.2734C35.5569 33.2905 35.6863 33.1645 35.7271 32.9806C35.768 32.8137 35.768 32.6332 35.768 32.4562C35.768 30.9408 35.7714 29.4289 35.768 27.9135C35.768 26.4186 35.7612 24.9203 35.7544 23.4254C35.7544 23.1257 35.7476 22.826 35.4104 22.6626C35.0801 22.8499 35.0733 23.1461 35.0733 23.4492C35.0733 24.716 35.0733 25.9861 35.0733 27.2529C35.0733 27.4232 35.121 27.6036 34.9848 27.8046H30.8167C30.7861 26.1087 31.004 24.4401 30.7111 22.826C30.5068 22.7069 30.357 22.7137 30.1595 22.8056L30.1629 22.7988ZM27.7758 24.103C27.8439 23.8374 27.6941 23.6501 27.5681 23.4696C27.0028 22.6524 25.8586 22.3493 24.8779 22.7477C23.4477 23.33 22.862 25.3289 24.1424 26.4322C24.4897 26.7319 24.8575 26.9941 25.2695 27.2052C25.8484 27.5015 26.4614 27.7262 27.0062 28.094C28.5556 29.1394 28.6544 30.9612 27.2241 32.1361C26.3081 32.8886 24.7417 33.0146 23.8189 31.7513C23.6486 31.5197 23.5737 31.2473 23.4477 30.9953C23.3353 30.774 23.2502 30.5186 22.9199 30.6071C22.6951 30.6684 22.6406 30.917 22.7564 31.295C22.7632 31.312 22.7666 31.329 22.7734 31.346C23.0833 32.102 23.5703 32.715 24.3024 33.0998C25.5317 33.7468 27.139 33.3994 28.1436 32.2859C29.2946 31.0123 29.2707 29.3574 28.0857 28.1042C27.6021 27.5934 26.9994 27.2733 26.383 26.9703C25.8144 26.691 25.2355 26.4288 24.7383 26.027C24.2207 25.6116 24.1424 25.0429 24.2513 24.447C24.3501 23.9021 24.7179 23.5548 25.2423 23.3811C25.845 23.1802 26.3796 23.2517 26.8155 23.7693C27.0573 24.0588 27.3501 24.2801 27.7792 24.103H27.7758ZM5.36226 31.4312C5.10686 31.7989 5.23626 32.119 5.43377 32.4221C5.60744 32.6877 5.84921 32.8989 6.11823 33.0725C7.23516 33.7842 8.38614 33.3722 8.82202 32.119C9.03996 31.4925 9.07401 30.8421 9.08082 30.1917C9.09785 28.0089 9.09104 25.8261 9.09444 23.6433C9.09444 23.4492 9.08082 23.2551 9.06039 23.0644C9.03996 22.8669 8.94802 22.7273 8.72327 22.7409C8.52236 22.7511 8.39295 22.8635 8.36571 23.0644C8.34528 23.2211 8.34528 23.3811 8.34528 23.5377C8.34528 25.9146 8.35209 28.2915 8.3589 30.6684C8.3589 30.9851 8.36231 31.3018 8.2908 31.6151C8.14778 32.2484 7.78682 32.5924 7.19089 32.6571C6.64264 32.7184 6.14888 32.4255 5.9037 31.8602C5.80494 31.6287 5.67895 31.4686 5.36566 31.4346L5.36226 31.4312Z" fill="white"/>
<path d="M56.7746 33.2181C56.3693 33.2521 55.9573 33.2181 55.5112 33.1874C55.0958 32.0705 54.6837 30.9706 54.2683 29.8537C53.3931 29.7856 52.5554 29.7004 51.7143 29.697C51.4215 29.697 51.3329 29.9048 51.2376 30.1159C50.9379 30.7765 50.7642 31.478 50.5225 32.1591C50.4918 32.2408 50.4714 32.3259 50.4373 32.4076C50.0491 33.4088 50.0423 33.4122 48.8913 33.2283C48.7892 32.9831 48.9186 32.7584 48.9901 32.5336C49.7495 30.1908 50.6178 27.8854 51.4623 25.5698C51.7279 24.8411 51.9901 24.1158 52.2455 23.3837C52.3409 23.1146 52.4601 22.9035 52.7904 22.9103C53.0969 22.9171 53.2807 23.0499 53.3931 23.3973C54.1763 25.8252 55.1673 28.1783 56.022 30.579C56.2706 31.2737 56.4953 31.9786 56.7201 32.6801C56.7712 32.8401 56.8699 33.0036 56.7746 33.2147V33.2181ZM52.8244 26.0261C52.3136 26.6629 52.1434 27.3917 51.9935 28.1851C52.5554 28.3009 53.0458 28.2566 53.5395 28.2123C53.4919 27.6334 53.0866 26.3939 52.8244 26.0261Z" fill="white"/>
<path d="M66.388 25.9074C66.7865 25.635 66.9703 25.2876 67.2053 24.9914C67.5969 24.4942 67.9817 23.9868 68.3256 23.4556C68.5981 23.0367 68.9692 22.8801 69.4358 22.8733C69.6946 22.8733 69.9602 22.846 70.2564 22.9312C70.1543 23.3909 69.8785 23.7314 69.6162 24.0719C69.1191 24.7121 68.564 25.3081 68.1043 25.9687C67.1168 27.3955 67.2019 27.0448 68.0192 28.3388C68.799 29.5715 69.6333 30.7701 70.4335 31.9892C70.6174 32.2685 70.7706 32.5681 70.9341 32.8576C70.9954 32.9665 71.0465 33.0789 70.9681 33.2287C70.5084 33.3445 70.0453 33.1981 69.5515 33.1947C69.0612 32.3842 68.5845 31.5636 68.0737 30.7667C67.5799 29.9937 67.1168 29.1935 66.4596 28.5226C66.2382 28.744 66.2961 28.9483 66.2927 29.1322C66.2723 30.2764 66.262 31.4205 66.2416 32.5647C66.2382 32.7895 66.2621 33.0244 66.1156 33.2424C65.7955 33.3309 65.4686 33.2934 65.1519 33.2526C64.9646 33.0891 65.0123 32.8848 65.0123 32.6975C65.0055 29.6362 65.0021 26.5714 65.0021 23.5101C65.0021 23.3364 64.968 23.1559 65.0974 22.9823C65.4584 22.8597 65.8364 22.8699 66.245 22.9107C66.371 23.8915 66.1905 24.8756 66.3915 25.904L66.388 25.9074Z" fill="white"/>
<path d="M72.3522 30.3146C72.6485 30.2091 72.9515 30.0797 73.2614 30.0558C73.4453 30.1273 73.4691 30.2738 73.5236 30.3998C73.6292 30.6415 73.7211 30.8901 73.8369 31.1251C74.4635 32.4361 76.2479 32.2727 76.9357 31.3464C77.6781 30.3487 77.5385 29.3714 76.5271 28.5916C76.0367 28.2136 75.4851 27.9412 74.9232 27.6892C74.3171 27.4167 73.8063 27.0285 73.4249 26.4769C72.8766 25.6869 72.8324 24.7266 73.3295 23.9468C73.9663 22.949 74.9164 22.6187 75.9039 22.7754C76.8267 22.9252 77.518 23.6267 77.7326 24.6074C77.4499 24.9275 77.0787 25.0262 76.6463 25.0024C76.5203 24.8287 76.3909 24.6619 76.2751 24.4882C76.1048 24.2294 75.8596 24.1272 75.56 24.1102C74.9709 24.0728 74.695 24.2396 74.4533 24.7947C74.2524 25.2578 74.3511 25.6494 74.7563 26.024C75.0866 26.3305 75.4953 26.4973 75.8903 26.688C76.7246 27.083 77.5044 27.5496 78.0697 28.3055C78.8086 29.2965 78.9585 30.3657 78.4034 31.4758C77.8279 32.6302 76.9357 33.3453 75.5736 33.3249C74.913 33.3147 74.2796 33.2159 73.6973 32.8822C72.7711 32.3476 72.2092 31.2954 72.3522 30.3112V30.3146Z" fill="white"/>
<path d="M44.6221 24.2269C43.8219 24.1792 43.1068 24.1384 42.3815 24.0941C42.2282 23.7025 42.2793 23.3279 42.3304 22.9602C42.8241 22.8308 47.8027 22.8512 48.3611 22.984C48.4701 23.3484 48.4497 23.7229 48.3713 24.1179C47.6324 24.2508 46.8934 24.1384 46.1375 24.2303C46.0557 24.7615 46.0115 25.2621 46.0081 25.7695C46.0047 27.9523 46.0081 30.1317 46.0013 32.3145C46.0013 32.6107 46.0319 32.9104 45.9434 33.2203C45.5654 33.3326 45.1908 33.3122 44.7413 33.2475C44.7243 30.2509 44.7107 27.2712 44.6255 24.2303L44.6221 24.2269Z" fill="white"/>
<path d="M58.334 22.92C58.8107 22.8621 59.1887 22.8417 59.6348 22.954V31.8724C60.2954 31.9848 60.9084 31.9406 61.5145 31.9542C62.1104 31.9644 62.7064 31.9542 63.3023 31.9542C63.4589 32.4139 63.4181 32.8021 63.3363 33.2414H58.3578C58.334 29.8054 58.3476 26.3831 58.3374 22.92H58.334Z" fill="white"/>
<path d="M20.8457 27.9368C20.9478 30.4056 18.9455 32.6872 16.0749 32.7008C13.4324 32.711 11.5152 30.5589 11.5254 27.8517C11.5356 25.1717 13.5039 23.2784 16.2758 23.2852C18.7957 23.292 21.0091 25.4271 20.8491 27.9402L20.8457 27.9368Z" fill="white"/>
</svg>
