<svg width="139" height="19" viewBox="0 0 139 19" fill="none" xmlns="http://www.w3.org/2000/svg">
<path d="M4.19603 0.732422L0 0.732422L0 17.5601H4.19603L4.19603 0.732422Z" fill="white"/>
<path d="M23.7778 13.3777L12.6355 0.732422L6.94727 0.732422L6.94727 17.5612H11.1433L11.1433 4.93935L22.2629 17.5612H27.9738L27.9738 0.732422L23.7778 0.732422L23.7778 13.3777Z" fill="white"/>
<path d="M47.482 0.732422L40.9317 14.3634L34.3804 0.732422L29.6719 0.732422L38.0639 17.5612L43.7985 17.5612L52.1906 0.732422L47.482 0.732422Z" fill="white"/>
<path d="M62.6661 0.492029C56.2866 -1.29014 52.2703 1.80574 51.5593 9.18289C51.0626 16.6303 55.0147 19.9278 62.6661 17.8014C70.3175 15.6812 73.9062 12.845 73.3897 9.06272C72.7044 5.25805 69.0475 2.27012 62.6661 0.492029ZM62.4775 14.7056C56.4743 16.1975 55.1885 13.1831 55.3771 9.05457C55.623 4.96476 58.2301 3.48199 62.5377 4.11135C66.8562 4.74173 68.692 6.29782 68.9231 9.08614C69.1216 11.8836 67.1416 13.5456 62.4765 14.7056H62.4775Z" fill="white"/>
<path d="M85.6565 4.12076C89.5504 4.12076 91.2045 6.02004 91.4375 7.29404L95.7037 7.29404C95.4469 3.11053 91.0959 0.490234 85.6565 0.490234C80.2172 0.490234 75.2598 3.97106 75.2598 9.14443C75.2598 14.3178 79.7639 17.7986 84.9573 17.7986C88.4305 17.7986 90.8786 16.6448 92.4172 14.9136V17.5583H95.7037V8.54359L85.3534 8.54359V11.3564H91.4375C91.3437 12.6304 89.7123 14.4573 85.6565 14.4573C80.8986 14.4573 79.4558 11.2841 79.4558 9.24016C79.4558 7.19627 81.1228 4.11974 85.6565 4.11974V4.12076Z" fill="white"/>
<path d="M114.413 9.12286C114.413 11.455 112.873 14.171 108.351 14.171C103.829 14.171 102.29 11.4784 102.29 9.12286V0.732422L98.0938 0.732422V9.12286C98.0938 14.9887 103.005 17.8015 108.351 17.8015C113.698 17.8015 118.609 14.9643 118.609 9.12286V0.732422L114.413 0.732422V9.12286Z" fill="white"/>
<path d="M138.531 4.17048V0.732422L121.279 0.732422V17.5612L138.531 17.5612V14.1231L125.475 14.1231V10.7095L138.531 10.7095V7.58409L125.475 7.58409V4.17048L138.531 4.17048Z" fill="white"/>
</svg>
