<svg width="112" height="23" viewBox="0 0 112 23" fill="none" xmlns="http://www.w3.org/2000/svg">
<path d="M9.61634 22.5188C10.0801 22.5206 10.5339 22.3848 10.9204 22.1284C11.3069 21.8721 11.6085 21.5068 11.7872 21.0789C11.9659 20.6509 12.0135 20.1796 11.9241 19.7246C11.8346 19.2695 11.6121 18.8513 11.2847 18.5228C10.9573 18.1943 10.5398 17.9705 10.0851 17.8795C9.63035 17.7885 9.15884 17.8346 8.73031 18.0118C8.30177 18.1891 7.93549 18.4896 7.67788 18.8752C7.42026 19.2608 7.28291 19.7142 7.28321 20.1779C7.2826 20.4849 7.34247 20.7889 7.45941 21.0727C7.57635 21.3565 7.74807 21.6144 7.96474 21.8318C8.18141 22.0492 8.43879 22.2218 8.72218 22.3396C9.00557 22.4575 9.30941 22.5184 9.61634 22.5188Z" fill="white"/>
<path d="M14.3708 17.1895C14.7288 17.1908 15.0791 17.0857 15.3773 16.8877C15.6756 16.6898 15.9084 16.4077 16.0462 16.0773C16.184 15.747 16.2207 15.3831 16.1517 15.0319C16.0826 14.6806 15.9108 14.3578 15.6581 14.1042C15.4054 13.8506 15.0832 13.6778 14.7321 13.6075C14.3811 13.5372 14.0172 13.5726 13.6863 13.7093C13.3555 13.8461 13.0726 14.0779 12.8736 14.3754C12.6746 14.673 12.5684 15.0229 12.5684 15.3809C12.5678 15.6181 12.6139 15.853 12.7042 16.0723C12.7945 16.2916 12.9271 16.491 13.0946 16.659C13.262 16.827 13.4609 16.9603 13.6799 17.0513C13.8989 17.1424 14.1337 17.1893 14.3708 17.1895Z" fill="white"/>
<path d="M10.9411 11.8341C11.2991 11.8353 11.6494 11.7303 11.9476 11.5323C12.2459 11.3343 12.4787 11.0522 12.6165 10.7219C12.7544 10.3915 12.7911 10.0276 12.722 9.67639C12.6529 9.32514 12.4811 9.00229 12.2284 8.74873C11.9757 8.49517 11.6535 8.3223 11.3025 8.25201C10.9514 8.18172 10.5875 8.21717 10.2566 8.35388C9.92577 8.49059 9.64294 8.7224 9.44392 9.01996C9.24491 9.31752 9.13868 9.66745 9.13868 10.0254C9.13807 10.2626 9.18423 10.4976 9.27452 10.7169C9.36481 10.9362 9.49745 11.1355 9.66487 11.3035C9.83228 11.4715 10.0312 11.6048 10.2502 11.6959C10.4692 11.7869 10.704 11.8339 10.9411 11.8341Z" fill="white"/>
<path d="M9.13449 4.86533C9.49247 4.86655 9.84276 4.76152 10.141 4.56353C10.4392 4.36554 10.672 4.0835 10.8099 3.75312C10.9477 3.42274 10.9844 3.05889 10.9153 2.70764C10.8462 2.35639 10.6745 2.03354 10.4218 1.77998C10.1691 1.52642 9.84682 1.35355 9.49581 1.28326C9.1448 1.21297 8.78082 1.24842 8.44998 1.38513C8.11913 1.52184 7.83629 1.75365 7.63728 2.05121C7.43827 2.34877 7.33204 2.6987 7.33203 3.05668C7.33163 3.29379 7.37793 3.52866 7.46829 3.74787C7.55865 3.96709 7.6913 4.16636 7.85868 4.33431C8.02605 4.50225 8.22487 4.63559 8.44377 4.7267C8.66267 4.81782 8.89738 4.86492 9.13449 4.86533Z" fill="white"/>
<path d="M15.5646 4.34549C15.8203 4.34641 16.0705 4.27142 16.2836 4.13003C16.4966 3.98863 16.663 3.78719 16.7614 3.55121C16.8599 3.31523 16.8862 3.05533 16.8369 2.80442C16.7875 2.55352 16.6649 2.32289 16.4844 2.14175C16.3039 1.96061 16.0737 1.83711 15.823 1.78688C15.5723 1.73666 15.3123 1.76197 15.0759 1.85961C14.8396 1.95725 14.6376 2.12284 14.4954 2.33538C14.3532 2.54793 14.2773 2.79789 14.2773 3.0536C14.2769 3.39555 14.4123 3.72368 14.6536 3.96592C14.895 4.20815 15.2226 4.34467 15.5646 4.34549Z" fill="white"/>
<path d="M18.9572 12.0701C19.2129 12.071 19.4631 11.996 19.6762 11.8546C19.8892 11.7132 20.0555 11.5118 20.154 11.2758C20.2525 11.0398 20.2788 10.7799 20.2294 10.529C20.1801 10.2781 20.0574 10.0475 19.877 9.86636C19.6965 9.68522 19.4663 9.56172 19.2156 9.51149C18.9648 9.46127 18.7048 9.48658 18.4685 9.58422C18.2322 9.68186 18.0301 9.84744 17.888 10.06C17.7458 10.2725 17.6699 10.5225 17.6699 10.7782C17.6695 11.1202 17.8049 11.4483 18.0462 11.6905C18.2876 11.9328 18.6152 12.0693 18.9572 12.0701Z" fill="white"/>
<path d="M4.65346 14.8547C5.1174 14.8566 5.57143 14.7206 5.958 14.4641C6.34456 14.2075 6.64623 13.842 6.82477 13.4137C7.0033 12.9855 7.05065 12.5139 6.96082 12.0588C6.87098 11.6036 6.64801 11.1854 6.32017 10.8571C5.99233 10.5288 5.57439 10.3053 5.11934 10.2149C4.6643 10.1244 4.19265 10.1711 3.76419 10.3491C3.33574 10.5271 2.96978 10.8283 2.71273 11.2145C2.45567 11.6007 2.3191 12.0546 2.32032 12.5185C2.32073 13.1375 2.56657 13.731 3.00394 14.1689C3.44131 14.6069 4.03451 14.8535 4.65346 14.8547Z" fill="white"/>
<path d="M2.33314 5.39658C2.79645 5.39811 3.24979 5.26212 3.63576 5.00583C4.02173 4.74955 4.32297 4.38449 4.50133 3.95689C4.67969 3.52929 4.72716 3.05838 4.63771 2.60378C4.54826 2.14919 4.32593 1.73136 3.99886 1.40321C3.67179 1.07506 3.2547 0.851345 2.80041 0.760393C2.34612 0.669441 1.87505 0.715345 1.44686 0.89229C1.01867 1.06924 0.652618 1.36926 0.395056 1.75438C0.137494 2.13951 7.14516e-06 2.59239 4.61526e-06 3.0557C-0.000605446 3.36263 0.0592702 3.66667 0.17621 3.95045C0.29315 4.23423 0.464862 4.49219 0.681534 4.70958C0.898206 4.92697 1.15559 5.09953 1.43898 5.21741C1.72237 5.33529 2.02621 5.39617 2.33314 5.39658Z" fill="white"/>
<path d="M111.088 0.617187V15.9945H108.079V14.4303C107.2 15.5722 106.037 16.1214 104.565 16.1214C103.623 16.1495 102.694 15.9053 101.887 15.4182C101.081 14.9311 100.432 14.2218 100.018 13.3752C99.5617 12.4235 99.3359 11.3778 99.359 10.3226C99.3378 9.28152 99.5637 8.25025 100.018 7.31335C100.434 6.47446 101.082 5.77263 101.886 5.29119C102.701 4.80181 103.636 4.55094 104.587 4.56712C106.037 4.56712 107.178 5.0947 107.991 6.10501V0.617187L111.088 0.617187ZM107.288 12.7161C107.771 12.1235 108.036 11.3329 108.036 10.3659C108.036 9.39894 107.771 8.60833 107.288 7.99411C107.046 7.70157 106.74 7.46836 106.393 7.31229C106.047 7.15623 105.669 7.08144 105.289 7.09365C104.906 7.08134 104.526 7.15597 104.176 7.31192C103.826 7.46788 103.516 7.70112 103.269 7.99411C102.763 8.61297 102.521 9.37728 102.521 10.3443C102.521 11.3112 102.763 12.1018 103.269 12.6944C103.775 13.287 104.455 13.5949 105.289 13.5949C106.123 13.5949 106.782 13.304 107.288 12.7161Z" fill="white"/>
<path d="M87.7328 7.31472C88.1917 6.46354 88.8856 5.76217 89.7318 5.29411C90.648 4.79498 91.6794 4.54529 92.7225 4.57003C93.7653 4.55573 94.7966 4.78904 95.7317 5.25079C96.5826 5.66769 97.2931 6.32434 97.7755 7.13989C98.2796 8.00696 98.5464 8.99149 98.5491 9.99442C98.545 10.3478 98.5155 10.7004 98.4609 11.0496H90.2609V11.1409C90.3274 11.9748 90.5905 12.6122 91.0515 13.0733C91.5126 13.5344 92.1345 13.7757 92.919 13.7757C93.4657 13.7945 94.0065 13.6577 94.4785 13.3812C94.9043 13.1031 95.2042 12.6694 95.314 12.1728H98.3665C98.2431 12.9042 97.9495 13.5964 97.5094 14.1934C97.0378 14.8124 96.4187 15.3034 95.7085 15.6215C94.8998 15.9779 94.022 16.1502 93.1386 16.1259C91.8653 16.1259 90.7885 15.9062 89.8664 15.4234C88.972 14.9936 88.2346 14.2946 87.7576 13.4245C87.2562 12.4849 87.0053 11.432 87.0289 10.3673C87.0289 9.20382 87.2486 8.20125 87.7328 7.31472ZM95.4424 9.02898C95.366 8.41092 95.0574 7.84505 94.5791 7.44623C94.0863 7.05745 93.472 6.85526 92.8447 6.87532C92.2196 6.85532 91.6091 7.06689 91.1304 7.46944C90.6688 7.86521 90.3778 8.42389 90.3182 9.02898H95.4424Z" fill="white"/>
<path d="M80.8119 0.617862C81.8275 0.603408 82.833 0.821446 83.7515 1.2553C84.5781 1.64198 85.2762 2.25793 85.7628 3.0299C86.2356 3.85083 86.4782 4.78404 86.4652 5.73127C86.4827 6.65412 86.2392 7.56315 85.7628 8.35372C85.2877 9.0911 84.6156 9.68066 83.8227 10.0556L86.8536 15.9875H83.2069L80.637 10.8292H77.8521V15.9921H74.5566V0.617862L80.8119 0.617862ZM77.8475 8.08297H80.5488C81.3224 8.08297 81.9413 7.88493 82.3946 7.44553C82.8479 7.00614 83.097 6.45689 83.097 5.73127C83.1092 5.40895 83.0528 5.08773 82.9318 4.78877C82.8107 4.48982 82.6276 4.21992 82.3946 3.99689C81.9305 3.57915 81.3116 3.35945 80.5488 3.35945H77.8475V8.08297Z" fill="white"/>
<path d="M72.3293 0.506001C72.4933 0.667052 72.6226 0.859923 72.7093 1.07277C72.7961 1.28562 72.8384 1.51395 72.8337 1.74374C72.8218 2.09452 72.7087 2.43437 72.5079 2.72226C72.3072 3.01016 72.0274 3.23378 71.7023 3.36613C71.3772 3.49848 71.0208 3.5339 70.676 3.46811C70.3313 3.40233 70.0129 3.23815 69.7594 2.9954C69.5904 2.83518 69.4577 2.6405 69.3704 2.42456C69.2832 2.20861 69.2433 1.97643 69.2535 1.74374C69.244 1.51319 69.2842 1.2833 69.3715 1.06971C69.4588 0.856123 69.5912 0.663856 69.7594 0.506001C70.1083 0.18082 70.5675 0 71.0444 0C71.5213 0 71.9805 0.18082 72.3293 0.506001ZM69.4949 4.70039H72.5892V15.9947H69.4949V4.70039Z" fill="white"/>
<path d="M66.8444 5.77666C67.5901 6.59048 67.9862 7.93033 67.9862 9.79931V16.0159H64.8918V9.68791C64.8918 7.97365 64.2327 7.11651 62.9378 7.11651C62.6296 7.10418 62.3228 7.16326 62.0412 7.28913C61.7597 7.41501 61.5111 7.60427 61.3148 7.84214C60.897 8.32486 60.6959 8.98395 60.6959 9.81942V16.0081H57.6016V9.68791C57.6016 7.97468 56.9409 7.11806 55.6196 7.11806C55.3093 7.10867 55.001 7.17125 54.7189 7.30089C54.4368 7.43054 54.1885 7.62373 53.9936 7.86535C53.5995 8.34806 53.402 9.00716 53.401 9.84263V16.0143H50.3066V4.70138H53.2942V6.10621C53.6578 5.63498 54.1233 5.25205 54.6557 4.98606C55.1833 4.72304 55.8424 4.59153 56.633 4.56987C58.2359 4.56987 59.356 5.20679 59.9935 6.48063C60.3902 5.87448 60.945 5.38819 61.5979 5.07425C62.3093 4.73019 63.0914 4.55745 63.8815 4.56987C64.4321 4.55469 64.9797 4.65413 65.4898 4.86188C65.9998 5.06963 66.4611 5.38115 66.8444 5.77666Z" fill="white"/>
<path d="M48.5923 4.70508V15.9994H45.5614V14.6379C45.1854 15.1 44.7135 15.4748 44.1783 15.7364C43.5725 16.015 42.9108 16.1506 42.2443 16.1325C40.9276 16.1325 39.8508 15.7364 39.0153 14.9242C38.1799 14.1119 37.7637 12.7442 37.7637 10.835V4.70508H40.858V10.4606C40.858 11.4925 41.0344 12.2615 41.3856 12.7813C41.7368 13.3012 42.3139 13.5549 43.055 13.5549C43.4022 13.569 43.7477 13.4983 44.0614 13.349C44.3752 13.1997 44.6479 12.9761 44.8559 12.6978C45.2736 12.1269 45.4933 11.3053 45.4933 10.2594V4.70508H48.5923Z" fill="white"/>
<path d="M27.7871 15.9899V0.617188L31.081 0.617187V13.1493H37.1877V15.9837L27.7871 15.9899Z" fill="white"/>
</svg>
