<svg width="190" height="21" viewBox="0 0 190 21" fill="none" xmlns="http://www.w3.org/2000/svg">
<path d="M0.0614363 0.726261C0.175228 0.648676 0.304536 0.67971 0.428672 0.67971C3.0407 0.67971 5.64756 0.659021 8.2596 0.684882C9.44924 0.700399 10.6285 0.865914 11.7458 1.34177C13.4268 2.06073 14.3319 3.34347 14.5492 5.13827C14.6578 6.05377 14.6009 6.95376 14.3112 7.83823C14.1354 8.37615 13.8561 8.85201 13.4888 9.27614C13.4061 9.36924 13.3233 9.46235 13.225 9.58131C13.3957 9.67958 13.5457 9.76751 13.6957 9.85544C14.5854 10.3727 15.3354 11.0399 15.8474 11.9502C16.2457 12.6589 16.4422 13.4192 16.5095 14.2261C16.5612 14.8261 16.525 15.4105 16.3905 15.995C16.1216 17.1588 15.4492 18.0588 14.4871 18.7415C13.3078 19.5794 11.9837 20.045 10.5458 20.2156C10.0182 20.2777 9.48544 20.2932 8.95269 20.2932C6.13894 20.2932 3.33036 20.2932 0.516602 20.2932C0.366604 20.2932 0.211434 20.3191 0.0666086 20.2622C-0.0213212 19.9467 -0.0213212 1.06764 0.0614363 0.726261ZM6.52686 12.7778V15.3692C6.59928 15.3847 6.64583 15.4054 6.69238 15.4054C7.22513 15.4054 7.75788 15.4209 8.28546 15.4054C8.70959 15.3898 9.10786 15.2554 9.45958 15.0174C9.91475 14.7019 10.0751 14.1537 9.8682 13.6416C9.71303 13.2537 9.40786 13.052 9.03028 12.9278C8.69925 12.8192 8.35787 12.8037 8.0165 12.783C7.52513 12.752 7.03375 12.7571 6.51652 12.783L6.52686 12.7778ZM6.56824 5.73826C6.46479 6.1055 6.47514 7.66754 6.57859 7.9934C7.10099 8.01409 7.62857 7.98306 8.10443 7.72444C8.71994 7.38824 8.782 6.51928 8.21305 6.11067C7.72167 5.75378 7.14754 5.70723 6.56824 5.73826Z" fill="white"/>
<path d="M76.3938 20.2717H68.237C66.3336 18.0527 64.4198 15.8183 62.5009 13.589C62.475 13.5994 62.4491 13.6097 62.4233 13.62V20.2613C60.2716 20.2613 58.1613 20.2613 56.0561 20.2613C55.9682 20.0027 55.9372 1.2478 56.0251 0.704707C56.3148 0.627122 62.0043 0.616777 62.4233 0.704707V6.81841C62.4543 6.82876 62.4802 6.84428 62.5112 6.85462C64.2284 4.78568 65.9405 2.72192 67.6422 0.673673L75.8145 0.673673C74.3817 2.2771 72.98 3.79777 71.5938 5.33395C70.2077 6.85979 68.8215 8.39081 67.4094 9.94768C70.4249 13.3769 73.43 16.7907 76.4352 20.2044C76.4196 20.2303 76.4093 20.2562 76.3938 20.2768V20.2717Z" fill="white"/>
<path d="M172.867 1.85248C171.822 3.5335 170.808 5.16278 169.81 6.76621C169.655 6.78173 169.577 6.70414 169.489 6.65759C168.108 5.89208 166.624 5.45243 165.067 5.26623C164.633 5.21451 164.183 5.21968 163.743 5.32313C163.531 5.37485 163.329 5.43692 163.159 5.57657C162.74 5.91795 162.822 6.49725 163.324 6.68862C164.115 6.98862 164.948 7.18 165.76 7.41792C167.058 7.80068 168.357 8.18343 169.598 8.7317C170.731 9.23342 171.708 9.93685 172.433 10.9558C173.095 11.892 173.389 12.9523 173.483 14.0799C173.705 16.8057 172.122 19.1953 169.634 20.1212C168.512 20.5402 167.343 20.7367 166.153 20.8246C164.912 20.9177 163.671 20.8919 162.434 20.7936C160.34 20.6229 158.302 20.204 156.414 19.2264C155.917 18.9729 155.441 18.6885 154.971 18.3057C156.047 16.6195 157.117 14.9385 158.183 13.2627C158.25 13.2782 158.291 13.2782 158.322 13.2989C159.331 14.0385 160.474 14.4627 161.679 14.742C162.729 14.9799 163.779 15.1971 164.865 15.1661C165.046 15.1661 165.222 15.1454 165.388 15.0885C165.91 14.9023 166.045 14.3282 165.657 13.9351C165.341 13.6196 164.938 13.4747 164.514 13.3765C163.526 13.1489 162.553 12.8747 161.602 12.5282C160.562 12.1454 159.579 11.6592 158.653 11.0541C156.76 9.80754 155.917 8.01274 156.041 5.78346C156.181 3.36798 157.531 1.79042 159.672 0.838706C160.805 0.331816 162.015 0.135267 163.252 0.0525099C163.795 0.0163035 164.338 -0.00438582 164.881 0.000786519C167.327 0.0369929 169.676 0.523193 171.936 1.45421C172.226 1.57318 172.515 1.70766 172.862 1.85766L172.867 1.85248Z" fill="white"/>
<path d="M17.8832 0.697611L24.2296 0.697611C24.3486 0.857953 24.3021 1.02864 24.3021 1.18898C24.3021 4.64411 24.3021 8.09923 24.3021 11.5544C24.3021 12.1492 24.3227 12.744 24.4727 13.3233C24.5141 13.494 24.5658 13.6647 24.6227 13.8302C25.0624 15.0147 26.0038 15.5474 27.3227 15.4388C28.0158 15.3819 28.6313 15.1491 29.0865 14.5957C29.4796 14.125 29.6606 13.5612 29.764 12.9664C29.8365 12.5526 29.852 12.1388 29.852 11.7199C29.852 8.22854 29.852 4.73204 29.852 1.24071C29.852 1.07519 29.8313 0.909677 29.8778 0.749334C30.1365 0.656232 35.5622 0.614853 36.2398 0.702783C36.3433 0.790713 36.3122 0.909677 36.3122 1.02347C36.3122 4.81997 36.3278 8.61647 36.2967 12.413C36.2864 13.6698 36.0588 14.906 35.6036 16.0853C34.7347 18.3353 33.095 19.7422 30.8037 20.4197C29.7537 20.7301 28.6779 20.8542 27.5865 20.8956C26.3244 20.9473 25.0831 20.8542 23.8572 20.5697C22.3831 20.2284 21.0642 19.5922 20.0142 18.4749C19.0935 17.5025 18.5452 16.3336 18.2194 15.0509C17.9556 14.0009 17.8418 12.9354 17.8366 11.8544C17.8263 8.3113 17.8366 4.76824 17.8366 1.22519C17.8366 1.05967 17.8211 0.899332 17.8728 0.687266L17.8832 0.697611Z" fill="white"/>
<path d="M54.1952 1.14907C54.2676 1.63527 54.2521 7.79552 54.1797 8.07483C54.0711 8.07483 54.0401 7.97656 53.9883 7.91449C53.1815 6.79209 52.0591 6.23348 50.7091 6.09382C49.9022 6.01107 49.0953 5.949 48.2884 6.07313C46.8091 6.30072 44.8643 7.44381 44.5074 9.63688C44.0316 12.5541 45.8264 14.5609 48.1746 14.9903C48.6867 15.0834 49.2091 15.104 49.7263 15.0782C50.3315 15.0471 50.9367 15.0058 51.5366 14.8971C52.3797 14.742 53.078 14.3489 53.6832 13.7644C53.8383 13.6144 53.9883 13.4644 54.1332 13.3196C54.159 13.3248 54.1745 13.3299 54.1797 13.3351C54.1901 13.3403 54.2056 13.3506 54.2056 13.361C54.2159 13.4748 54.2263 13.5885 54.2263 13.7023C54.2263 15.7506 54.2263 17.7988 54.2263 19.8574C53.6159 20.1729 53.0004 20.3953 52.3591 20.5402C48.966 21.3057 45.7126 20.985 42.6713 19.2264C40.5713 18.0109 38.9989 16.304 38.2644 13.961C37.3696 11.1162 37.4937 8.31276 38.8954 5.63866C39.7334 4.0404 41.0109 2.84559 42.5264 1.88871C44.1299 0.874932 45.8833 0.316319 47.766 0.130114C49.8349 -0.0767792 51.8315 0.18701 53.7556 0.978378C53.8952 1.03527 54.0297 1.10251 54.1849 1.16975L54.1952 1.14907Z" fill="white"/>
<path d="M115.244 20.2753H108.774C108.774 19.0494 108.774 17.8391 108.774 16.6288C108.774 15.4133 108.774 14.1978 108.774 12.9823V5.69446H104.512V0.739357C104.812 0.6566 119.087 0.646255 119.496 0.729013V5.68929C119.025 5.68929 118.565 5.69446 118.099 5.69963C117.629 5.69963 117.163 5.69963 116.693 5.69963C116.227 5.7048 115.762 5.67377 115.244 5.72549V20.2753Z" fill="white"/>
<path d="M174.502 0.697266L189.435 0.697266C189.518 0.992089 189.538 5.17134 189.455 5.6834C189.005 5.70926 188.54 5.69375 188.08 5.69375C187.609 5.69375 187.143 5.69375 186.673 5.69375H185.287C185.162 5.88512 185.209 6.06616 185.209 6.23684C185.209 10.7264 185.209 15.2212 185.209 19.7108C185.209 19.8867 185.235 20.0625 185.178 20.2332C184.893 20.3108 179.245 20.3315 178.764 20.2435V5.70409H174.528C174.43 5.38341 174.414 1.09554 174.507 0.697266H174.502Z" fill="white"/>
<path d="M134.329 0.705078L140.769 0.705078C140.81 1.4861 140.784 2.26713 140.784 3.04298C140.784 3.83952 140.784 4.63606 140.784 5.4326V12.5342C140.784 13.3152 140.784 14.1014 140.784 14.9342C141.317 14.9652 141.834 14.9445 142.347 14.9497C142.879 14.9497 143.412 14.9497 143.945 14.9497H147.038C147.126 15.2807 147.136 19.8479 147.059 20.2669H134.324V0.705078H134.329Z" fill="white"/>
<path d="M148.402 0.702438L154.754 0.702438C154.754 0.702438 154.779 0.7283 154.785 0.738644C154.795 0.748989 154.805 0.759334 154.805 0.769678C154.816 0.842091 154.831 0.919676 154.831 0.992089C154.831 7.36959 154.831 13.7471 154.826 20.1194C154.826 20.1556 154.805 20.1918 154.8 20.2229C154.516 20.3004 148.852 20.3211 148.402 20.2435C148.33 19.928 148.324 1.05933 148.402 0.697266V0.702438Z" fill="white"/>
<path d="M79.56 5.81118C78.9548 4.16121 78.3651 2.54744 77.791 0.969873C77.8738 0.83022 77.9669 0.840564 78.0548 0.835392C78.1686 0.835392 78.2824 0.835392 78.3962 0.835392C86.2375 0.835392 94.0787 0.835392 101.92 0.835392C102.096 0.835392 102.272 0.804358 102.494 0.892288C102.267 1.74055 101.92 2.54744 101.625 3.36984C101.33 4.20259 101.025 5.03016 100.715 5.8836C93.6546 5.87325 86.6306 5.92498 79.56 5.80601V5.81118Z" fill="white"/>
<path d="M99.9308 8.03711C99.3308 9.73364 98.7618 11.3371 98.2136 12.8784C98.0687 12.9767 97.9808 12.9819 97.8877 12.9819C97.267 12.9974 96.6464 13.0284 96.0257 13.0284C93.0723 13.0284 90.124 13.0491 87.1706 13.0232C85.5982 13.0077 84.031 12.9767 82.4586 12.9715C82.3603 12.9715 82.2569 12.956 82.1172 12.9405C81.5328 11.3526 80.9897 9.73881 80.4414 8.17676C80.5293 8.04745 80.6069 8.03711 80.6845 8.03711C87.0672 8.03711 93.4498 8.03711 99.9308 8.03711Z" fill="white"/>
<path d="M97.4086 15.1211C96.7879 16.8487 96.1982 18.4986 95.5931 20.1848C91.9621 20.2003 88.357 20.19 84.7053 20.1641C84.1156 18.5038 83.526 16.859 82.957 15.2504C83.0191 15.1418 83.0656 15.1211 83.1174 15.1211C87.8501 15.1211 92.5879 15.1211 97.4137 15.1211H97.4086Z" fill="white"/>
</svg>
