<svg width="129" height="70" viewBox="0 0 129 70" fill="none" xmlns="http://www.w3.org/2000/svg">
<path d="M58.3778 0.0713758C56.9219 0.132039 55.5267 0.223033 55.2688 0.283695C55.0262 0.329192 54.0253 0.450518 53.0698 0.541512C50.3552 0.768997 47.049 1.23913 45.305 1.60311C44.9107 1.6941 44.2282 1.83059 43.7884 1.89126C42.7268 2.07324 41.0434 2.40689 40.1032 2.64954C38.2833 3.10451 36.5999 3.55948 35.2653 3.95379C34.871 4.05995 34.4009 4.16611 34.2492 4.16611C34.0976 4.16611 33.9459 4.22677 33.8852 4.3026C33.8397 4.37843 33.5819 4.48459 33.3089 4.54525C32.7933 4.65141 32.4445 4.75757 30.2455 5.53102C28.8957 6.00115 27.9555 6.34996 27.364 6.60778C27.1972 6.66844 26.4541 6.97176 25.6958 7.29024C23.6333 8.13951 20.7973 9.45893 19.7812 10.0656C19.5385 10.2172 18.8561 10.5812 18.2798 10.8997C15.7168 12.3101 12.3045 14.6001 10.0751 16.4351C8.96804 17.3451 5.5861 20.8787 4.75199 21.9858C3.25058 24.0028 2.27998 25.6104 1.68852 27.0663C1.49137 27.5212 1.27905 28.0369 1.20322 28.2037C-0.0706983 31.161 -0.374012 35.8927 0.490432 39.4263C0.717917 40.3514 0.975733 41.1552 1.20322 41.7011C1.27905 41.868 1.49137 42.3836 1.68852 42.8386C2.03733 43.6878 3.69039 46.5542 4.0392 46.903C4.14536 47.0091 4.23635 47.1608 4.23635 47.2214C4.23635 47.2821 4.41834 47.5248 4.66099 47.7826C4.88848 48.0252 5.26762 48.465 5.47994 48.7532C6.25339 49.7541 8.49791 51.9683 10.2268 53.4545C11.5159 54.5465 14.5642 56.6848 16.9755 58.1862C19.2049 59.5663 24.5887 62.1293 27.5915 63.2516C28.1375 63.4487 28.7138 63.6762 28.8806 63.752C29.0474 63.843 29.6692 64.0553 30.2455 64.2373C30.8369 64.4193 31.3829 64.6316 31.4587 64.6923C31.5497 64.7378 31.853 64.844 32.1412 64.9046C32.4293 64.9653 32.763 65.0714 32.8995 65.1321C33.0208 65.1928 33.5061 65.3596 33.9611 65.4809C34.416 65.6174 35.2805 65.8601 35.8568 66.0269C37.1004 66.3909 39.1781 66.9368 39.724 67.0582C39.9363 67.0885 40.8615 67.3008 41.7866 67.498C44.5164 68.0894 45.6386 68.2866 49.2784 68.8325C50.4765 69.0145 53.9039 69.3937 56.1181 69.606C59.3332 69.9093 69.6762 69.9093 73.1947 69.6211C74.5899 69.4998 76.1216 69.3633 76.5766 69.3178C79.4429 69.0752 84.8874 68.3017 87.3442 67.7861C90.1044 67.2098 90.8172 67.0581 91.4996 66.861C91.8939 66.7397 92.3337 66.6487 92.4702 66.6487C92.6826 66.6487 93.2285 66.5122 95.0787 65.9662C97.2171 65.3596 97.5962 65.2383 97.8086 65.1321C97.945 65.0714 98.2787 64.9653 98.5668 64.9046C98.855 64.844 99.1735 64.7378 99.2493 64.6771C99.3403 64.6165 99.6436 64.48 99.9318 64.4042C100.584 64.207 102.48 63.5094 102.889 63.3122C103.056 63.2364 103.572 63.0241 104.026 62.8573C107.803 61.4165 113.232 58.3985 116.235 56.0782C116.326 56.0024 117.008 55.4716 117.751 54.8953C120.982 52.3929 124.637 48.0404 126.123 44.9618C126.699 43.7485 127.215 42.5353 127.382 41.959C127.897 40.2301 128.019 39.7296 128.292 38.1372C129.08 33.5117 128.216 29.2805 125.577 24.7914C125.001 23.8208 123.712 22.0009 123.439 21.7583C123.393 21.7128 123.075 21.3488 122.756 20.9242C121.892 19.8474 119.571 17.5726 118.115 16.3745C116.341 14.9034 110.563 10.9907 110.169 10.9907C110.138 10.9907 109.744 10.7783 109.304 10.5205C107.742 9.59542 104.997 8.276 102.586 7.29024C101.843 6.97176 101.084 6.65328 100.918 6.57745C100.508 6.39546 97.3688 5.28837 96.1403 4.89406C95.5944 4.72724 94.8816 4.49975 94.5479 4.39359C94.2143 4.28743 93.5318 4.07511 93.0314 3.93862C92.5309 3.80213 91.9243 3.60498 91.6665 3.52915C90.2409 3.05901 83.8258 1.66377 82.1121 1.45145C81.6116 1.37562 80.8533 1.2543 80.4439 1.1633C79.5643 0.966151 77.6079 0.7235 75.3634 0.526346C74.4837 0.450518 73.316 0.314027 72.7852 0.238198C71.4809 0.0258788 61.7446 -0.0802809 58.3778 0.0713758ZM69.4487 9.76224C69.9947 9.8684 70.4952 10.0049 70.5862 10.0959C70.662 10.1717 70.8592 10.2324 71.0411 10.2324C71.208 10.2324 71.4809 10.3234 71.6478 10.4447C71.8146 10.5509 72.1179 10.7025 72.2999 10.7632C73.0582 10.9907 74.5747 12.0219 75.6212 13.0077C77.7444 15.0247 79.0031 17.4664 79.4733 20.4844C79.6249 21.546 79.6249 21.9251 79.4126 23.199C79.0789 25.1554 78.988 25.2464 77.4259 25.2616C75.8183 25.2616 74.2563 25.5497 73.3312 26.0198C72.5122 26.4293 72.1786 26.8691 72.8004 26.7175C72.9975 26.672 73.4373 26.5355 73.771 26.399C74.5899 26.0957 76.0155 26.0957 76.6828 26.4141C77.3804 26.7326 77.7899 27.4302 77.7899 28.2492C77.7899 29.5838 76.8344 30.4027 75.3179 30.4027C74.3169 30.4027 73.5283 30.0387 72.7094 29.2046C72.3909 28.8558 72.0724 28.5828 72.0269 28.5828C71.9662 28.5828 71.7843 28.7042 71.6023 28.8407C71.4354 28.9923 70.7985 29.4473 70.2222 29.8719C69.6307 30.2814 69.1454 30.6757 69.1454 30.7364C69.1454 30.797 69.3729 30.8425 69.6459 30.8274C70.298 30.8122 70.5103 30.9335 70.5103 31.3885C70.5103 31.9193 70.0402 32.1013 68.4781 32.1923L67.0981 32.2529L65.6422 33.2235C64.8384 33.7543 64.1104 34.1941 64.0194 34.1941C63.8374 34.1941 63.5341 35.0889 63.0943 36.9998C62.7758 38.3647 62.6849 38.6983 62.2602 40.2604C61.9569 41.3523 61.2593 44.1428 61.1076 44.8101C61.047 45.0983 60.8498 45.8869 60.6678 46.5542C60.2432 48.1769 60.2583 48.2527 60.8801 48.5105C61.5929 48.8138 61.5778 49.2385 60.8498 49.739C60.5313 49.9513 60.228 50.1181 60.1674 50.1181C60.1067 50.1181 59.6062 50.3911 59.0603 50.7247C58.5143 51.0584 57.9835 51.3313 57.8773 51.3313C57.5589 51.3313 57.3162 50.9977 57.3162 50.5427C57.3162 50.0423 57.1646 50.0119 56.7702 50.4366C56.2091 51.0584 55.0717 51.4982 54.0556 51.5133C53.2366 51.5133 53.0092 51.4527 52.539 51.1039C51.4016 50.2243 50.8556 49.011 50.704 46.9485C50.4765 43.8395 51.5987 40.7457 53.6764 38.759C54.5409 37.9552 56.1485 37.2273 57.1342 37.2273C57.756 37.2273 58.9086 37.6519 59.2271 38.0007C59.3636 38.1524 59.5607 38.2889 59.6669 38.2889C59.8337 38.2889 60.1219 37.1363 60.2887 35.7714L60.3797 35.1496L59.7579 35.0586C58.4536 34.8918 57.574 33.7998 57.574 32.3591C57.574 31.4643 57.756 31.0093 58.4081 30.4179C58.8024 30.0387 58.6963 29.8568 58.2261 30.0994C57.6195 30.4179 57.0887 30.0236 57.3162 29.417C57.4224 29.144 58.3475 28.5677 59.0148 28.3705C59.2119 28.3099 59.2574 28.1885 59.1968 27.8701C59.1361 27.5061 59.2271 27.0056 59.7579 24.9582C59.8034 24.8218 59.6366 24.6853 59.3636 24.5943C57.9987 24.1545 57.5134 23.7602 57.1039 22.7592C56.8006 22.0313 56.8006 21.7735 57.1039 20.8483C57.5134 19.5744 58.6205 18.8768 60.228 18.8768C61.3503 18.8768 61.2441 18.983 61.5626 17.5119C61.6688 17.0569 61.8356 16.3593 61.9569 15.965C62.1996 15.1309 62.2299 14.4788 62.0176 14.4788C61.7446 14.4788 61.8507 13.8873 62.1541 13.7356C62.609 13.493 64.2924 13.493 64.4441 13.7205C64.5199 13.8418 64.5502 13.9783 64.5047 14.039C64.4744 14.0996 64.3379 14.6153 64.2166 15.1764C64.0801 15.7527 63.8829 16.602 63.7616 17.0569C63.6403 17.5119 63.4735 18.1944 63.3825 18.5583C63.1853 19.3924 63.246 19.5593 63.8526 19.8626C64.3076 20.1052 64.3379 20.1052 64.6564 19.8019C65.2934 19.2105 65.8697 19.5593 65.7028 20.4389C65.6422 20.7422 65.6877 20.8483 65.8697 20.8483C65.991 20.8483 66.1426 20.6967 66.1881 20.4995C66.3549 19.7867 66.5976 18.7706 66.8099 17.891C66.9312 17.3906 67.0981 16.6778 67.1739 16.2986C67.2649 15.9195 67.4014 15.4342 67.4924 15.1916C67.6289 14.8882 67.6137 14.7214 67.4772 14.5698C67.3862 14.4484 67.3256 14.1906 67.3559 13.9935C67.4014 13.675 67.5075 13.6295 68.3871 13.5537C68.9331 13.493 69.4639 13.493 69.5701 13.5233C69.8431 13.6447 69.7976 14.3119 69.3578 15.9498C69.1454 16.7688 68.8725 17.8152 68.7663 18.2702C68.6601 18.7252 68.3568 19.9232 68.0838 20.9242C67.826 21.9251 67.5227 23.1232 67.4165 23.5782C67.2952 24.0331 67.0526 24.9886 66.8706 25.671C66.6431 26.5658 66.5673 27.1573 66.6279 27.6426C66.6886 28.0369 66.7493 28.5525 66.7796 28.8103C66.8251 29.2653 67.0981 29.4473 67.4014 29.2198C67.5379 29.1288 68.3417 26.126 69.0848 22.8957C69.2061 22.3952 69.4033 21.6066 69.5094 21.1517C69.6914 20.4389 69.9492 19.4683 70.3132 18.0124C70.3739 17.7545 70.3132 17.6787 70.0402 17.6332C69.7672 17.6029 69.6611 17.4816 69.6307 17.1783C69.5852 16.8294 69.6459 16.7536 70.0099 16.6778C70.2374 16.6171 70.5862 16.511 70.7833 16.4351C71.4203 16.1773 73.316 16.2683 74.2259 16.6171C75.3634 17.0418 75.8942 17.5119 76.1823 18.4067C76.5614 19.5896 76.4553 20.363 75.7577 21.5308C75.151 22.5166 73.1492 23.6843 71.9966 23.7147C71.7539 23.7298 71.5719 23.8057 71.5719 23.8815C71.5719 24.1545 71.9511 25.2464 72.0421 25.2464C72.0876 25.2464 72.4364 25.0796 72.8155 24.8824C73.862 24.3365 75.0752 24.0331 76.5918 23.9573C77.3501 23.927 78.0173 23.8511 78.078 23.8057C78.1235 23.745 78.1538 22.8047 78.1538 21.7128C78.1387 20.0749 78.078 19.5441 77.805 18.7403C77.2894 17.2692 76.8799 16.4655 76.061 15.3887C74.5292 13.3565 72.679 12.0826 70.0857 11.2636C68.6753 10.8087 65.1265 10.7783 63.7616 11.203C56.9219 13.311 53.6916 19.9536 56.3608 26.4596C56.4821 26.7478 56.6792 27.1876 56.8006 27.4151C57.3465 28.3857 56.4669 29.0681 55.83 28.1582C54.7835 26.6416 54.1314 24.291 54.1314 21.9858C54.1314 19.5744 54.7835 17.3602 56.0878 15.3735C59.0451 10.8845 64.0649 8.77647 69.4487 9.76224ZM29.3204 27.1573C29.6844 27.2938 29.6085 27.7942 29.1687 28.0824C28.6379 28.416 28.5318 28.7193 27.364 33.4359C27.2578 33.8908 27.091 34.5429 27 34.8766C26.7422 35.8472 26.7877 35.9534 27.5612 36.4083C27.9555 36.6358 28.9261 37.2424 29.7147 37.7581C32.3838 39.487 32.6265 39.5779 32.7933 38.8652C33.2786 36.8178 33.7033 35.1799 34.0217 33.9667C34.1582 33.4662 34.3705 32.6776 34.4767 32.2226C34.598 31.7676 34.8255 30.8425 35.0075 30.1904C35.4018 28.689 35.4018 28.7193 34.9468 28.0369C34.3554 27.1573 34.5374 27.0663 36.9184 27.0663C38.0406 27.0663 39.0416 27.1118 39.1781 27.1573C39.5572 27.3089 39.4662 27.7791 38.9506 28.1582C38.6018 28.4463 38.4501 28.7345 38.2833 29.4321C38.1771 29.9174 37.98 30.7364 37.8435 31.2368C37.707 31.7373 37.4947 32.5259 37.3885 32.9809C37.2672 33.4359 36.8577 35.0434 36.4634 36.5448C35.5383 40.1391 35.5686 39.9571 35.7506 39.9571C35.8416 39.9571 36.0994 39.8813 36.3269 39.8054C36.888 39.5931 37.2975 39.7448 37.2975 40.1846C37.2975 40.4272 36.9335 40.8822 36.0539 41.7011C34.9317 42.7324 34.78 42.9447 34.6132 43.6423C34.4009 44.6281 34.0976 45.811 33.5971 47.7674C33.127 49.6176 33.1118 49.8754 33.5213 50.2546C33.9307 50.6337 33.8094 51.2555 33.3241 51.392C32.763 51.5285 29.927 51.4982 29.5024 51.3313C28.9564 51.1342 28.9867 50.5731 29.5479 50.1636C29.7753 49.9816 30.018 49.6783 30.0635 49.4811C30.109 49.284 30.2455 48.7229 30.382 48.2224C30.5033 47.7219 30.8218 46.4935 31.0796 45.4926C31.8379 42.6414 31.8379 42.7779 31.0038 42.2774C30.6095 42.05 29.381 41.2613 28.2739 40.5182C27.1669 39.7903 26.1811 39.1988 26.1053 39.1988C25.8626 39.1988 25.8019 39.3656 25.5593 40.4272C25.347 41.3372 25.256 41.7163 24.6342 44.0215C24.3157 45.1589 24.0276 46.3418 23.7546 47.4793C23.6484 47.9797 23.4968 48.4802 23.4513 48.5712C23.3906 48.647 23.3299 49.011 23.3148 49.3446C23.2996 49.7996 23.3906 50.0574 23.6332 50.3304C24.0882 50.8157 23.8607 51.2707 23.1025 51.4223C22.238 51.5892 19.3869 51.392 19.2352 51.1494C19.0077 50.8005 19.0835 50.4517 19.402 50.3456C19.8418 50.2091 20.1603 49.6631 20.3878 48.647C20.7063 47.2063 21.2067 45.2347 21.4646 44.4158C21.783 43.4149 21.7072 43.1267 21.1006 42.9296C20.403 42.6869 19.584 41.868 19.22 41.049C18.6589 39.7751 19.0532 37.9704 20.0996 37.0604C20.6608 36.56 22.1622 35.8472 22.8295 35.7562C23.6332 35.65 23.8152 35.4377 24.0579 34.4368C24.1489 34.0121 24.3309 33.2235 24.4674 32.6776C24.6039 32.1316 24.7858 31.4188 24.8617 31.0852C24.9223 30.7515 25.0588 30.2814 25.1498 30.0539C25.4228 29.3563 25.347 28.4615 24.983 27.9762C24.7252 27.6122 24.6948 27.4909 24.8617 27.2938C25.0133 27.1118 25.438 27.0663 27.0607 27.0663C28.183 27.0663 29.1839 27.1118 29.3204 27.1573ZM53.5248 31.5401C53.6764 31.7221 53.6764 31.9041 53.5551 32.3439C53.3125 33.1174 53.085 33.9667 52.8423 34.9524C52.7362 35.4074 52.5239 36.196 52.3874 36.6965C52.2509 37.1969 52.0537 37.9856 51.9324 38.4405C51.8262 38.8955 51.6139 39.6841 51.4774 40.1846C51.3409 40.685 51.1589 41.3978 51.0831 41.777C50.9921 42.1561 50.886 42.5656 50.8405 42.6869C50.7798 42.8082 50.6585 43.2935 50.5523 43.7485C50.3097 44.8101 49.976 46.1599 49.6575 47.3124C49.1419 49.2385 49.0964 49.6935 49.4452 50.1636C49.612 50.3911 49.7334 50.7399 49.703 50.9219C49.6424 51.3162 48.9903 51.4527 47.049 51.4678C45.6083 51.483 45.032 51.3162 45.032 50.8764C45.032 50.4972 45.0623 50.4972 44.2131 50.9674C43.3335 51.4678 42.56 51.483 42.0595 51.0129C41.8624 50.8309 41.6956 50.5882 41.6956 50.4821C41.6956 50.1181 41.4226 50.1181 40.9828 50.4821C40.27 51.0735 39.3146 51.483 38.3895 51.574C37.2369 51.6953 36.5392 51.4678 35.9023 50.7551C34.5222 49.2233 34.9317 46.7058 36.8274 45.0376C37.3885 44.5523 38.8293 43.6423 39.3752 43.43C40.27 43.0964 42.6813 41.8376 43.0605 41.5192C43.8794 40.8367 43.8036 39.4111 42.924 39.0472C42.1809 38.7438 41.5591 39.0017 40.9828 39.8509C39.997 41.3068 39.9363 41.3675 39.0567 41.4433C38.3591 41.504 38.1923 41.4585 37.9041 41.1703C37.1004 40.3666 38.1923 38.6225 40.0273 37.8036C40.3155 37.6822 41.0586 37.4851 41.6804 37.3789C42.6813 37.1969 42.924 37.1969 43.8036 37.4244C45.0017 37.7429 45.7448 38.2889 46.2149 39.1988C46.7154 40.1997 46.6396 41.2917 45.8661 43.976C45.76 44.3855 45.578 45.0376 45.487 45.4167C45.396 45.7959 45.214 46.4783 45.0927 46.9333C44.6225 48.6622 44.5922 48.829 44.7439 48.9807C44.8197 49.0565 45.0017 49.1323 45.1533 49.1323C45.4718 49.1323 45.578 49.739 45.3353 50.0574C45.123 50.2849 45.1837 50.3152 45.5476 50.1788C45.7751 50.0878 46.0936 49.1778 46.5637 47.3124C46.6547 46.9788 46.8064 46.357 46.9277 45.9475C47.1552 45.1438 47.8528 42.3684 48.0651 41.4737C48.3836 40.0481 49.2481 36.8178 49.6727 35.3771C49.976 34.3458 49.9457 33.5572 49.5817 33.2387C48.8386 32.6017 49.5817 32.1164 52.0537 31.616C52.3722 31.5553 52.6755 31.4643 52.721 31.4037C52.8878 31.2368 53.3276 31.3127 53.5248 31.5401ZM104.299 32.8899C105.27 33.4207 105.498 34.7553 104.876 36.1202C104.39 37.1666 103.314 38.3192 102.904 38.2585C102.571 38.213 102.54 38.0614 102.753 37.0301C102.844 36.5145 102.798 36.3932 102.389 35.9685C101.479 35.0282 101.539 33.8453 102.54 33.1325C103.208 32.6472 103.738 32.5714 104.299 32.8899ZM68.2203 33.269C69.5397 34.1941 68.1748 36.7875 66.3853 36.7723C65.5663 36.7571 64.899 36.0443 64.899 35.1344C64.899 34.7098 65.4905 33.7392 66.0061 33.3145C66.6128 32.8141 67.553 32.7989 68.2203 33.269ZM67.9928 37.3183C68.4023 37.4699 68.3265 38.0007 67.3862 41.4737C67.2649 41.9286 67.0981 42.5808 67.0222 42.9144C66.9464 43.248 66.7341 44.067 66.5673 44.7343C66.3853 45.4016 66.1426 46.3267 66.0213 46.7816C65.9 47.2366 65.6877 48.0859 65.5512 48.6622C65.3389 49.6631 65.3389 49.7086 65.6422 50.1333C66.082 50.7247 66.0516 51.1494 65.5663 51.3313C65.1417 51.4982 62.3057 51.5133 61.7143 51.3465C61.138 51.1949 61.138 50.6337 61.6991 50.1333C62.1389 49.7541 62.2905 49.3901 62.7 47.6916C62.8062 47.2366 63.1095 46.0385 63.3825 45.0376C63.9588 42.8386 64.2469 41.6557 64.4744 40.5941L64.6564 39.7751L64.1711 39.396C63.8981 39.1988 63.6858 38.941 63.6858 38.8348C63.6858 38.5164 64.1711 38.1675 64.8232 38.0007C65.1569 37.9249 65.8696 37.7277 66.4156 37.5609C67.5682 37.2121 67.6744 37.1969 67.9928 37.3183ZM72.7549 37.4093C72.861 37.5154 72.9369 37.8946 72.9369 38.2737V38.9562L73.589 38.3344C74.2563 37.6822 75.151 37.2273 75.7728 37.2273C76.6373 37.2273 77.4865 38.0007 77.4865 38.7893V39.2291L78.0174 38.759C79.8827 37.1363 83.022 36.8026 84.6751 38.0614C85.5699 38.7438 85.9793 39.5325 85.9793 40.6244C85.9793 41.1248 85.9187 41.7315 85.8277 41.9893C85.676 42.5049 84.9784 45.2499 84.7357 46.3267C84.6448 46.7058 84.5234 47.0698 84.4628 47.1608C84.3869 47.2366 84.2959 47.7068 84.2353 48.1769L84.1291 49.0262L84.5538 49.0868C85.221 49.1627 85.2059 49.648 84.5083 50.3152C83.7803 51.028 83.1585 51.3617 82.5519 51.3617C82.0211 51.3617 81.278 50.9522 81.278 50.6489C81.278 50.5427 81.1718 50.3759 81.0505 50.2697C80.8533 50.1029 80.7472 50.1333 80.3984 50.4517C79.3064 51.4527 77.6079 51.8925 76.3946 51.4982C75.3634 51.1494 74.6051 49.9058 74.6051 48.5409C74.6051 47.2215 74.9842 46.3722 76.061 45.3106C76.8648 44.522 77.3956 44.1883 79.3519 43.2329C80.6258 42.5959 81.7481 42.0803 81.8239 42.0803C82.0363 42.0651 82.7339 41.4282 82.931 41.0642C83.1737 40.594 83.1433 39.7751 82.8704 39.396C82.5822 38.9865 81.8391 38.8197 81.278 39.0472C81.0202 39.1533 80.5955 39.6083 80.2164 40.1997C79.4884 41.322 79.2761 41.4737 78.3358 41.4737C77.5321 41.4737 77.1832 41.1855 77.1832 40.5486V40.0936L76.6979 40.4727C76.425 40.6699 75.9548 40.8822 75.6515 40.9429C75.151 41.0339 75.0297 40.9884 74.4989 40.5031C73.9985 40.0481 73.8468 40.0026 73.6496 40.1542C73.3463 40.3817 72.6639 41.8831 72.3909 42.9447C72.2696 43.3845 72.0724 44.1428 71.9359 44.613C71.8146 45.0983 71.6326 45.7959 71.5568 46.175C71.4809 46.5542 71.3596 46.994 71.2838 47.1608C71.2231 47.3276 71.0411 47.9646 70.8895 48.5712C70.6165 49.7693 70.5862 49.648 71.3293 50.6641C71.6478 51.0735 71.1625 51.2859 69.6307 51.3617C66.8554 51.5133 66.0668 51.1797 67.0222 50.2394C67.371 49.8906 67.5985 49.4811 67.735 48.9048C68.1597 47.176 68.372 46.3722 68.5995 45.4926C68.736 44.9921 68.9483 44.2035 69.0696 43.7485C69.1758 43.2935 69.3881 42.4746 69.5246 41.9286C69.6611 41.3827 69.8127 40.6547 69.8582 40.3211C69.9189 39.7448 69.8885 39.6689 69.4639 39.4111C69.2061 39.2595 68.9634 39.0471 68.9331 38.9562C68.7966 38.5922 69.3729 38.1675 70.4345 37.8339C71.026 37.6519 71.6326 37.4396 71.7994 37.3789C72.2392 37.1969 72.5425 37.1969 72.7549 37.4093ZM91.0447 37.4699C91.0902 37.6064 91.1357 37.9856 91.1357 38.3192V38.9258L91.8333 38.3192C92.5309 37.6974 93.6077 37.2273 94.3204 37.2273C94.8512 37.2273 95.9735 37.9704 96.0948 38.395C96.1858 38.8197 96.6105 38.85 96.9593 38.4557C97.0958 38.304 97.6721 37.9552 98.218 37.6822C98.9915 37.2879 99.3403 37.2121 99.7953 37.2728C100.66 37.3789 101.372 37.9856 101.661 38.85C101.979 39.7599 101.964 39.9723 101.585 41.413C101.418 42.0803 101.191 42.9902 101.069 43.4452C100.963 43.9002 100.766 44.6888 100.629 45.1893C100.235 46.5997 99.9469 47.8281 99.7498 48.8593C99.5829 49.7541 99.5829 49.8299 99.9166 50.2697C100.311 50.8005 100.235 51.2555 99.7346 51.392C99.31 51.4982 96.3223 51.5133 95.8825 51.392C95.3517 51.2404 95.3214 50.7096 95.837 50.2697C96.292 49.8754 96.6408 49.0413 96.8228 47.8432C96.8835 47.4793 96.9896 47.0698 97.0654 46.9333C97.1868 46.6907 97.8844 44.0063 98.1422 42.7627C98.218 42.3533 98.3545 41.8983 98.4303 41.7466C98.6882 41.2765 98.6427 40.2907 98.3394 39.9571C97.7176 39.2746 96.6256 39.9268 96.292 41.1855C95.8977 42.6414 95.6854 43.43 95.3062 44.9618C94.002 50.1636 94.093 49.6328 94.4569 50.1333C94.8512 50.6641 94.8664 51.119 94.4873 51.3313C94.1081 51.5285 90.984 51.5285 90.4684 51.3313C89.9376 51.1342 89.9224 50.4669 90.4229 50.2849C90.9385 50.0878 90.984 49.9664 92.2731 44.8101C92.3792 44.3551 92.5916 43.5362 92.7281 42.9902C93.274 40.8367 93.3043 40.5637 93.1375 40.1846C92.8949 39.6538 92.3186 39.5628 91.6968 39.9419C91.2721 40.1997 91.166 40.3969 91.0295 41.049C90.9385 41.4888 90.7414 42.2623 90.6049 42.7627C90.2864 43.9305 89.9376 45.3257 89.7708 46.1447C89.6949 46.5087 89.5888 46.8575 89.5433 46.9333C89.4978 46.994 89.3764 47.5248 89.2551 48.1011C89.1338 48.6622 88.9973 49.2688 88.9366 49.4356C88.876 49.6631 88.967 49.8754 89.2248 50.1636C89.4371 50.4062 89.6191 50.6792 89.6191 50.7854C89.6191 51.2404 89.24 51.3313 87.1623 51.3313C85.1756 51.3313 85.0694 51.3162 84.9026 50.9977C84.7509 50.7096 84.7812 50.6186 85.221 50.2394C85.676 49.8754 85.7822 49.6176 86.222 47.8887C86.495 46.8271 86.9954 44.8556 87.3594 43.521C87.7082 42.1864 88.0267 40.7912 88.0722 40.4424C88.1329 39.8358 88.0874 39.7448 87.6476 39.3656C87.2381 39.032 87.1623 38.8803 87.2381 38.5619C87.3139 38.2585 87.4656 38.1524 87.8902 38.0614C88.1935 38.0159 88.5575 37.9097 88.694 37.8339C89.0731 37.6216 90.2561 37.2728 90.62 37.2424C90.802 37.2424 90.9992 37.3334 91.0447 37.4699ZM108.698 37.4699C109.88 37.8036 111.154 38.4405 111.412 38.85C111.609 39.1533 111.609 39.305 111.306 40.2907C110.912 41.5798 110.775 41.777 110.335 41.777C109.85 41.777 109.638 41.4888 109.638 40.8215C109.638 39.8509 109.183 39.2898 108.227 39.0472C106.756 38.6983 105.71 39.2898 105.695 40.4879C105.695 41.0339 105.786 41.1855 106.498 41.868C106.923 42.2926 107.56 42.8234 107.894 43.0661C108.94 43.8395 109.956 44.8556 110.29 45.4926C110.76 46.357 110.76 48.2679 110.29 49.1323C109.88 49.9058 108.986 50.7551 108.121 51.1949C107.181 51.6802 105.194 51.6802 104.148 51.21C103.754 51.028 103.374 50.8764 103.283 50.8764C103.208 50.8764 102.904 50.6489 102.616 50.3759L102.1 49.8906L102.222 48.92C102.449 47.3428 102.707 46.721 103.192 46.6603C103.708 46.5997 103.86 46.8271 103.875 47.6158C103.89 48.3892 104.451 49.5266 104.936 49.7844C105.179 49.9058 105.589 49.9513 106.074 49.9058C106.696 49.8451 106.923 49.7238 107.348 49.2688C107.818 48.7532 107.848 48.6622 107.788 47.9039C107.697 46.9181 107.59 46.7816 105.68 45.3257C104.876 44.7191 104.011 43.9608 103.753 43.6423C102.131 41.595 103.253 38.3647 105.892 37.5003C106.893 37.1818 107.636 37.1666 108.698 37.4699Z" fill="#D8031D"/>
<path d="M72.4075 17.8493C72.362 18.0464 72.1952 18.744 72.0132 19.4113C71.3459 22.035 71.2852 22.2928 71.2701 22.399C71.2701 22.6568 72.4378 22.49 73.0141 22.1715C74.5762 21.2919 74.9553 19.2748 73.7724 18.0313C73.6511 17.9099 72.726 17.5156 72.544 17.5156C72.5136 17.5156 72.453 17.6673 72.4075 17.8493ZM59.0314 20.3971C58.4399 20.7459 58.2276 21.1251 58.2276 21.8227C58.2276 22.4596 58.6977 23.0208 59.3953 23.2482C59.7896 23.3696 59.911 23.3544 60.093 23.1573C60.3053 22.8994 60.5934 21.8075 60.7602 20.6549L60.8361 20.0938H60.1839C59.7896 20.0938 59.3195 20.2151 59.0314 20.3971ZM62.7014 21.4132C62.565 21.7317 62.474 22.1108 62.5043 22.2625C62.5498 22.5051 62.6408 22.4596 63.1261 21.9743C63.7327 21.3677 63.8237 21.0947 63.4446 20.9431C63.0351 20.7762 62.9441 20.8369 62.7014 21.4132ZM63.945 22.8539C63.4446 23.3392 62.9744 23.7336 62.8834 23.7336C62.3526 23.7487 61.9583 24.3402 61.6247 25.6141C61.2152 27.2217 61.0181 27.525 60.2598 27.7676C59.6986 27.9344 59.7441 27.9496 61.1242 27.9648C62.5346 27.9799 62.9744 28.0709 65.037 28.7382C66.2199 29.1174 66.4322 28.9505 65.5526 28.3591C64.4455 27.616 64.3697 27.4946 64.582 26.7364C64.6882 26.3724 64.8398 25.7809 64.9156 25.4169C64.9915 25.0378 65.1128 24.5222 65.1886 24.2795C65.6588 22.7326 65.6891 22.5051 65.4161 22.2018C65.2796 22.0502 65.0825 21.9288 64.9915 21.944C64.9005 21.9592 64.4303 22.3686 63.945 22.8539ZM70.3753 25.9629C70.2843 26.2056 70.1478 26.6909 70.0568 27.07C69.981 27.4491 69.8748 27.9496 69.8141 28.1923L69.708 28.6321L70.2994 28.2833C70.9061 27.9041 71.2701 27.6008 71.2701 27.4643C71.2701 27.434 71.1184 27.3733 70.9364 27.343C70.5421 27.2975 70.3753 26.6909 70.6483 26.4179C70.8454 26.2207 70.8757 25.5534 70.6786 25.5534C70.6028 25.5534 70.4663 25.7354 70.3753 25.9629ZM73.9999 27.6311C73.7117 27.7525 73.4387 27.8889 73.4084 27.9193C73.2719 28.0406 74.0909 28.7837 74.5913 28.996C75.8956 29.5572 77.1543 28.5562 76.2747 27.6766C75.9107 27.3126 74.8036 27.2823 73.9999 27.6311ZM60.1991 29.3448C60.1991 29.4358 60.6692 29.4965 61.3214 29.4965C61.9432 29.4965 62.5043 29.4207 62.5498 29.3448C62.6105 29.2539 62.201 29.1932 61.4275 29.1932C60.7147 29.1932 60.1991 29.2539 60.1991 29.3448ZM58.8342 29.7998C58.8342 29.9818 58.9555 29.9818 59.365 29.7998C59.638 29.6785 59.6228 29.6633 59.2588 29.6633C59.0162 29.6482 58.8342 29.7088 58.8342 29.7998ZM63.5052 29.7543C63.6872 29.7847 63.9602 29.7847 64.1119 29.7543C64.2483 29.7088 64.0967 29.6785 63.763 29.6937C63.4294 29.6937 63.3081 29.724 63.5052 29.7543ZM64.7488 30.0728C64.7488 30.2245 65.6588 30.4519 65.7801 30.3306C65.9014 30.2093 65.7801 30.1486 65.2493 30.0273C64.9611 29.9666 64.7488 29.9818 64.7488 30.0728ZM66.3412 30.5581C66.2805 30.6491 66.4474 30.7098 66.7203 30.7098C66.9933 30.7098 67.1602 30.6491 67.0995 30.5581C67.054 30.4671 66.872 30.4064 66.7203 30.4064C66.5687 30.4064 66.3867 30.4671 66.3412 30.5581ZM59.9716 30.8917C59.1527 31.1799 58.8342 31.5894 58.8342 32.3628C58.8342 33.2879 59.3953 33.8946 60.2294 33.8946C60.9119 33.8946 60.9271 33.8187 60.4114 33.2728C60.0778 32.9239 60.0475 32.833 60.2143 32.5448C60.3356 32.378 60.6237 32.196 60.8816 32.1505C61.1242 32.0898 61.6095 31.9685 61.9432 31.8472C62.2768 31.741 62.8379 31.5742 63.2019 31.4832C63.5507 31.377 63.8389 31.2557 63.8389 31.1799C63.8389 31.0131 62.0493 30.7098 61.1697 30.7249C60.7602 30.7249 60.2294 30.8008 59.9716 30.8917ZM64.2483 31.4529C64.218 31.4984 64.2483 31.8017 64.2938 32.1202L64.3697 32.7116L64.7337 32.3932C64.9308 32.2112 65.1583 32.0747 65.2341 32.0747C65.3099 32.0747 65.3554 31.9533 65.3251 31.8169C65.2796 31.559 64.3393 31.2406 64.2483 31.4529ZM57.1356 39.5665C56.8323 39.6575 56.3319 39.976 56.0285 40.2641C55.4068 40.8556 54.4058 42.812 54.1328 43.9797C53.7992 45.284 53.7689 46.9977 54.057 47.847C54.3907 48.8479 54.6181 49.0602 55.4219 49.0602C55.9831 49.0602 56.1347 48.9844 56.5442 48.5294C57.4693 47.4678 58.1972 45.4508 58.7584 42.3722C59.0465 40.8253 59.001 40.34 58.5764 39.8395C58.2124 39.43 57.8181 39.3542 57.1356 39.5665ZM21.4357 37.7921C20.7987 37.9135 20.5257 38.4746 20.5864 39.4452C20.6167 39.6727 20.7835 39.8092 21.2082 39.9305C22.1181 40.2186 22.4518 40.0063 22.6944 39.0357C23.028 37.7315 23.028 37.7618 22.3608 37.7466C22.0271 37.7315 21.6025 37.7466 21.4357 37.7921ZM41.4088 44.3892C39.2098 45.5266 38.3605 46.5427 38.3605 47.9531C38.3605 48.9086 38.679 49.3635 39.3311 49.3635C40.3776 49.3635 41.8638 47.756 42.2885 46.1787C42.8647 44.0252 42.9102 43.7067 42.6221 43.7674C42.5766 43.7826 42.0306 44.0556 41.4088 44.3892ZM81.5069 44.0404C78.5344 45.6631 77.8974 46.3607 77.8823 47.938C77.8671 48.9844 78.1098 49.3635 78.8074 49.3635C79.4747 49.3484 80.1723 48.8934 80.7941 48.0593C81.4311 47.21 81.5827 46.8764 81.9315 45.4963C82.4472 43.5702 82.432 43.5399 81.5069 44.0404Z" fill="#D8031D"/>
</svg>
