<svg width="151" height="30" viewBox="0 0 151 30" fill="none" xmlns="http://www.w3.org/2000/svg">
<path d="M144.791 23.9167C143.081 23.9167 141.696 23.3961 140.655 22.327C139.632 21.2579 139.111 19.9006 139.111 18.2552C139.111 16.6097 139.613 15.3082 140.636 14.2391C141.659 13.1701 142.979 12.6309 144.587 12.6309C146.195 12.6309 147.264 13.0678 148.222 13.9695C149.495 15.1409 150.128 16.8514 150.1 19.1569H142.449C142.551 19.8913 142.821 20.477 143.22 20.8954C143.62 21.2951 144.159 21.4996 144.847 21.4996C145.535 21.4996 146.307 21.1464 146.623 20.4305H149.923C149.672 21.4531 149.086 22.2898 148.129 22.9406C147.208 23.5913 146.084 23.926 144.801 23.926H144.782L144.791 23.9167ZM142.449 17.1396H146.651C146.586 16.4889 146.381 15.9869 146 15.615C145.647 15.2431 145.182 15.0479 144.624 15.0479C143.416 15.0479 142.681 15.7359 142.43 17.1396H142.449Z" fill="white"/>
<path d="M131.916 24.2645L128.234 13.6016H131.721L133.18 18.4078L133.766 20.5646H133.803C133.989 19.8301 134.175 19.1236 134.389 18.4078L135.876 13.6016H139.26L135.579 24.2645H131.897H131.916Z" fill="white"/>
<path d="M124.238 23.7067V13.0438H127.622V23.7067H124.238ZM124.238 11.5842V8.8418H127.622V11.5842H124.238Z" fill="white"/>
<path d="M109.852 23.7253V8.8418H113.533V14.4847H118.757V8.8418H122.439V23.7253H118.757V17.5153H113.533V23.7253H109.852Z" fill="white"/>
<path d="M100.344 23.9167C98.8009 23.9167 97.5459 23.582 96.6255 22.9127C95.7052 22.2247 95.2218 21.3044 95.166 20.133H98.364C98.4848 21.1742 99.1356 21.7227 100.326 21.7227C101.515 21.7227 101.246 21.6391 101.534 21.4531C101.85 21.2672 101.99 20.9976 101.99 20.6629C101.99 20.3283 101.99 20.4584 101.952 20.3748C101.934 20.2911 101.869 20.2074 101.804 20.1423C101.739 20.0773 101.655 20.0215 101.599 19.9564C101.543 19.8913 101.45 19.8542 101.33 19.8077C101.209 19.7426 101.097 19.7054 100.995 19.6868C100.911 19.6868 100.79 19.6217 100.595 19.6032C100.428 19.566 100.307 19.5381 100.195 19.5195C100.084 19.5009 99.9444 19.4544 99.7398 19.4358C99.5353 19.3986 99.3866 19.3707 99.2843 19.3521C98.8474 19.2871 98.4662 19.2034 98.1595 19.1476C97.8434 19.064 97.5087 18.9431 97.1369 18.7758C96.7836 18.6084 96.4675 18.4225 96.2351 18.2087C96.0027 17.9763 95.8168 17.6881 95.668 17.3348C95.5193 16.963 95.4356 16.5446 95.4356 16.0426C95.4356 14.955 95.8725 14.1183 96.7557 13.5326C97.6296 12.9283 98.7172 12.6309 100.037 12.6309C101.357 12.6309 102.668 12.9469 103.486 13.5512C104.304 14.1555 104.76 14.9735 104.844 16.0426H101.729C101.627 15.206 101.041 14.7876 100.019 14.7876C98.9961 14.7876 99.2285 14.8713 98.9311 15.0386C98.6615 15.206 98.5313 15.457 98.5313 15.773C98.5313 16.0891 98.5313 15.9404 98.5685 16.0054C98.5871 16.0705 98.6336 16.1263 98.6893 16.1914C98.7544 16.2565 98.8102 16.2936 98.8753 16.3401C98.9404 16.3866 99.0426 16.4238 99.1449 16.461C99.2471 16.4982 99.3494 16.5446 99.4331 16.5632C99.5353 16.5632 99.6655 16.6283 99.8049 16.6469C99.9723 16.6469 100.093 16.712 100.205 16.7306C100.307 16.7306 100.456 16.7678 100.642 16.8142C100.828 16.8142 100.976 16.8514 101.079 16.8793C101.562 16.963 101.934 17.0466 102.25 17.1117C102.566 17.1768 102.919 17.2976 103.319 17.4836C103.737 17.6509 104.072 17.8554 104.304 18.0878C104.537 18.3203 104.741 18.627 104.909 19.0268C105.095 19.4265 105.178 19.8635 105.178 20.4026C105.178 21.5275 104.723 22.4107 103.821 23.0149C102.947 23.6192 101.776 23.9353 100.335 23.9353L100.344 23.9167Z" fill="white"/>
<path d="M87.877 23.4612V12.7982H91.1214V14.4715H91.1865C91.9209 13.263 92.8784 12.6309 94.0962 12.6309C95.3141 12.6309 94.6354 12.6309 94.7656 12.7145V15.6243H94.6819C93.6407 15.4756 92.804 15.6615 92.1905 16.1914C91.5769 16.7213 91.2701 17.5301 91.2701 18.6549V23.4426H87.8863V23.4612H87.877Z" fill="white"/>
<path d="M81.4555 23.9167C79.745 23.9167 78.3598 23.3961 77.3186 22.327C76.296 21.2579 75.7754 19.9006 75.7754 18.2552C75.7754 16.6097 76.2774 15.3082 77.3 14.2391C78.3226 13.1701 79.6427 12.6309 81.251 12.6309C82.8592 12.6309 83.9283 13.0678 84.8859 13.9695C86.1595 15.1409 86.7916 16.8514 86.7637 19.1569H79.1128C79.2151 19.8913 79.4846 20.477 79.8844 20.8954C80.2841 21.2951 80.8233 21.4996 81.5113 21.4996C82.1992 21.4996 82.9708 21.1464 83.2869 20.4305H86.5871C86.3361 21.4531 85.7504 22.2898 84.7929 22.9406C83.8725 23.5913 82.7477 23.926 81.4648 23.926H81.4462L81.4555 23.9167ZM79.1128 17.1396H83.3148C83.2497 16.4889 83.0452 15.9869 82.664 15.615C82.3108 15.2431 81.8459 15.0479 81.2882 15.0479C80.0796 15.0479 79.3452 15.7359 79.0942 17.1396H79.1128Z" fill="white"/>
<path d="M65.6289 23.7253V8.8418H68.9756V16.6601L72.1364 13.0624H76.0409L72.3037 17.0505L76.4871 23.716H72.5547L70.0075 19.3653L68.9849 20.453V23.716H65.6382L65.6289 23.7253Z" fill="white"/>
<path d="M57.3888 23.833C56.3011 23.833 55.3994 23.5448 54.7579 22.9777C54.0886 22.4107 53.7539 21.6205 53.7539 20.5979C53.7539 19.5753 54.1072 18.7386 54.8416 18.2552C55.576 17.7532 56.5521 17.4185 57.835 17.2512C58.8762 17.1303 59.592 16.9816 59.9639 16.8328C60.3636 16.6655 60.5496 16.4145 60.5496 16.0612C60.5496 15.2896 60.0662 14.9085 59.09 14.9085C58.1139 14.9085 57.4818 15.364 57.3516 16.2843H54.2373C54.2745 15.2431 54.7207 14.36 55.5295 13.6721C56.3662 12.9841 57.5375 12.6309 59.0621 12.6309C60.5868 12.6309 61.7395 12.919 62.5111 13.5047C63.4129 14.1555 63.8684 15.1781 63.8684 16.5353V21.9087C63.8684 22.7453 63.9892 23.2659 64.2402 23.4333V23.582H60.9586C60.8099 23.3961 60.7076 22.9963 60.6053 22.3921H60.5682C59.8802 23.3496 58.8297 23.8516 57.4074 23.8516L57.3888 23.833ZM58.4579 21.6855C59.1086 21.6855 59.6106 21.5182 60.0011 21.1649C60.3915 20.8117 60.6053 20.3469 60.6053 19.7612V18.4876C60.2707 18.6549 59.685 18.8408 58.8483 19.0547C58.1604 19.2034 57.6956 19.3893 57.4074 19.5939C57.1378 19.7984 56.989 20.0959 56.989 20.4956C56.989 21.2858 57.4725 21.6855 58.4486 21.6855H58.4579Z" fill="white"/>
<path d="M37.2773 24.1296V9.24609H42.2323L44.0544 15.7722L44.9097 19.156H44.9469C45.3466 17.5292 45.6162 16.395 45.7835 15.7722L47.6242 9.24609H52.6164V24.1296H49.2511V16.646L49.3162 13.6805H49.279C48.9257 15.1679 48.6933 16.0882 48.5911 16.4415L46.4343 24.1296H43.4037L41.2748 16.4601L40.5869 13.6805H40.5497C40.5869 15.2702 40.6147 16.2742 40.6147 16.6739V24.1389H37.2866L37.2773 24.1296Z" fill="white"/>
<path fill-rule="evenodd" clip-rule="evenodd" d="M0.389053 14.2832L0.203125 14.3948C0.203125 14.3948 0.258903 14.3483 0.286793 14.3297C0.314682 14.3111 0.351867 14.3018 0.389053 14.2832Z" fill="white"/>
<path fill-rule="evenodd" clip-rule="evenodd" d="M14.0654 23.043V23.0709C14.0561 23.2754 13.9539 23.4521 13.7958 23.5636C13.7587 23.5915 13.7215 23.6101 13.6843 23.6287L7.82756 26.901C7.82756 26.901 7.76249 26.9382 7.7253 26.9568C7.66023 26.9847 7.57656 27.0033 7.49289 27.0033C7.2047 27.0033 6.9537 26.7895 6.89792 26.5106C6.89792 26.4734 6.89792 26.4269 6.89792 26.3897V26.3711L6.71199 19.5941C6.71199 19.4267 6.64692 19.2687 6.53536 19.1571C6.49818 19.1293 6.45169 19.1107 6.41451 19.0921L6.24717 18.9991L0.399745 15.7175C0.399745 15.7175 0.381152 15.7082 0.371856 15.7082L0.23241 15.6245C0.0929639 15.513 0 15.3363 0 15.1411C0 14.9738 0.0650747 14.825 0.176631 14.7135L0.204521 14.6856L0.371856 14.5833H0.381152L6.07984 11.0321C6.07984 11.0321 6.10773 11.0135 6.11702 11.0042L6.21929 10.9391C6.21929 10.9391 6.25647 10.9112 6.28436 10.9019C6.34943 10.8741 6.4331 10.8555 6.51677 10.8555C6.61903 10.8555 6.72129 10.8834 6.80496 10.9298C6.83285 10.9391 6.85144 10.9577 6.87933 10.967L13.517 14.6949C13.5727 14.7228 13.6192 14.7507 13.6657 14.7785C13.8051 14.8994 13.8981 15.0667 13.8981 15.262L14.0747 23.043H14.0654Z" fill="white"/>
<path fill-rule="evenodd" clip-rule="evenodd" d="M29.1833 7.71022V21.7385C29.1833 22.036 29.0346 22.2963 28.8114 22.4543C28.7557 22.4915 28.6999 22.5194 28.6441 22.5473L27.6122 23.1422L17.851 28.7665L17.693 28.8595L17.4605 28.9897C17.3676 29.0268 17.2653 29.0454 17.1538 29.0454C16.7075 29.0454 16.3357 28.7015 16.2892 28.2645V22.8076C16.2892 22.5566 16.4101 22.3334 16.596 22.2033L16.7447 22.1103C16.7447 22.1103 16.7447 22.1103 16.7633 22.101L22.3783 18.8566C22.3783 18.8566 22.4527 18.8287 22.4806 18.8008C22.5922 18.7357 22.6851 18.6335 22.7595 18.5126C22.8339 18.3732 22.871 18.2244 22.871 18.085V11.4381C22.871 11.1406 22.7223 10.8617 22.4527 10.6944C22.4527 10.6851 22.4341 10.6851 22.4248 10.6758C22.4155 10.6665 22.4062 10.6665 22.3969 10.6665L16.7447 7.40344C16.7447 7.40344 16.7261 7.39414 16.7168 7.38485C16.7075 7.38485 16.7075 7.37555 16.6982 7.37555C16.4379 7.2361 16.1405 7.2361 15.8895 7.37555C15.8709 7.37555 15.843 7.38485 15.8244 7.40344L10.1629 10.6758C10.1629 10.6758 10.1257 10.7037 10.1071 10.7037C9.8654 10.8431 9.55861 10.8524 9.29832 10.7037C9.28902 10.7037 9.27972 10.7037 9.27043 10.6944C9.26113 10.6851 9.24254 10.6758 9.23324 10.6665L4.97549 8.20293L4.75238 8.07278C4.75238 8.07278 4.73379 8.07278 4.72449 8.06348C4.71519 8.06348 4.7059 8.06348 4.6966 8.04489C4.28756 7.79389 4.16671 7.28259 4.38982 6.87355C4.46419 6.75269 4.54786 6.65043 4.65942 6.58536C4.65942 6.57606 4.67801 6.56676 4.68731 6.56676L4.78027 6.51099L4.97549 6.39943L9.5958 3.73137L14.7181 0.75652L15.8523 0.115069C16.1219 -0.033673 16.4472 -0.0429694 16.7261 0.115069L17.851 0.75652L27.6122 6.38084L28.6627 6.9851C28.6627 6.9851 28.765 7.04088 28.8114 7.06877C29.016 7.20822 29.1647 7.44062 29.1833 7.71022Z" fill="white"/>
</svg>
