<svg width="921" height="921" viewBox="0 0 921 921" fill="none" xmlns="http://www.w3.org/2000/svg">
<g opacity="0.3" style="mix-blend-mode:difference">
<path d="M920.574 692.069C916.564 626.659 881.073 563.222 820.961 510.086C778.077 474.391 744.466 463.401 688.739 441.514C732.092 330.296 743.15 276.002 739.485 218.138C731.184 87.1309 634.453 -7.17922 510.814 0.429471C407.755 6.75439 328.723 65.5573 310.993 175.868C305.574 235.735 323.805 280.354 348.551 307.251C384.23 346.046 447.099 368.183 469.214 377.232C428.586 447.902 290.976 723.944 141.275 753.001C40.597 768.938 24.402 680.389 21.8021 648.139L21.3322 636.741L0 638.056L2.16141 673.282L2.38069 677.07C6.17099 738.41 38.0283 806.074 84.5143 856.83C102.244 876.18 123.952 891.523 148.198 901.542C255.047 945.629 353.156 903.734 437.138 826.677C505.489 867.757 528.575 883.288 556.767 896.251C600.873 915.006 649.363 923.367 697.196 920.423C833.083 912.063 928.186 815.342 920.574 692.069ZM424.827 285.896C409.415 194.905 451.86 112.149 474.414 75.6396C498.503 39.2557 532.929 17.0872 560.119 24.8837C576.69 29.6431 584.584 48.4613 579.76 77.3931C566.259 158.114 514.604 291.376 479.489 359.259L482.935 353.153C482.12 354.594 480.867 356.848 479.207 359.823C479.301 359.635 479.395 359.447 479.489 359.29L479.176 359.823C478.079 361.764 476.826 363.956 475.385 366.492L479.144 359.823C453.865 350.147 429.62 314.421 424.764 285.928L424.827 285.896ZM722.601 717.744C683.038 788.915 609.299 852.102 522.467 838.45C508.433 836.258 500.383 833.346 455.431 809.08C555.201 709.165 633.325 562.502 679.905 461.021C709.068 471.855 725.483 494.086 733.001 510.086C753.518 553.672 773.253 626.596 722.601 717.744Z" fill="#1C1C1C"/>
</g>
</svg>
